<svg xmlns="http://www.w3.org/2000/svg" viewBox="0 0 1200 760" role="img" aria-label="Sunset walk on a beach">
  <defs>
    <linearGradient id="sky" x1="0" x2="0" y1="0" y2="1">
      <stop stop-color="#f5b786"/>
      <stop offset=".38" stop-color="#b78493"/>
      <stop offset=".72" stop-color="#44506a"/>
      <stop offset="1" stop-color="#1b1d2a"/>
    </linearGradient>
    <linearGradient id="sea" x1="0" x2="1" y1="0" y2="0">
      <stop stop-color="#1e3652"/>
      <stop offset=".5" stop-color="#526073"/>
      <stop offset="1" stop-color="#87626a"/>
    </linearGradient>
    <linearGradient id="sand" x1="0" x2="1" y1="0" y2="1">
      <stop stop-color="#99736c"/>
      <stop offset=".52" stop-color="#604556"/>
      <stop offset="1" stop-color="#1e1d28"/>
    </linearGradient>
    <filter id="soften">
      <feGaussianBlur stdDeviation="1.2"/>
    </filter>
  </defs>
  <rect width="1200" height="760" fill="url(#sky)"/>
  <circle cx="700" cy="178" r="90" fill="#ffd38b" opacity=".82"/>
  <path fill="#896d79" opacity=".42" d="M0 110c180-28 280 45 448 23s285-89 443-59 204 89 309 68v121H0Z"/>
  <path fill="url(#sea)" d="M0 320c160-31 260 23 409-6 173-34 280-89 442-51 135 32 223 61 349 31v237H0Z"/>
  <path fill="#fff6ed" opacity=".62" d="M0 427c112-32 216-18 319 12 87 25 171 43 259 20 77-20 154-55 256-51 139 5 242 67 366 30v35c-119 37-223-20-359-26-103-4-177 29-257 50-99 26-189 8-282-19-101-29-194-42-302-8Z" filter="url(#soften)"/>
  <path fill="url(#sand)" d="M0 504c157-44 305-18 464 6 208 32 442 28 736-112v362H0Z"/>
  <path fill="#fff7ee" opacity=".5" d="M0 560c178-47 294-31 470 3 162 31 360 11 730-117v29C829 608 625 632 460 598c-176-36-290-47-460 1Z"/>
  <g transform="translate(680 310)">
    <path fill="#efe6dc" d="M-70 40c-16 50-19 102-13 156h49c4-47 12-90 28-131Z"/>
    <circle cx="-38" cy="-1" r="32" fill="#7c4b35"/>
    <path fill="#f2e5d9" d="M-82 56c40 30 78 29 112 1l16 54c-35 34-100 34-143 1Z"/>
    <path fill="#302739" d="M-18 195h45c5 81 8 155 6 219h-54Z"/>
    <path fill="#3a3043" d="M-83 195h49c-2 70-10 143-25 219h-57Z"/>
  </g>
  <g transform="translate(582 326)">
    <circle cx="-4" cy="-15" r="27" fill="#9c562d"/>
    <path fill="#d67b44" d="M-35-11c-22 48-27 84-15 134l48-3c3-39 9-72 27-107Z"/>
    <path fill="#f4edf0" d="M-55 75c-28 49-46 103-57 162h102C-2 175 3 124-5 77Z"/>
    <path fill="#f8e1d8" d="M25 39c26 23 55 30 82 23l-6 32c-37 13-75 3-109-27Z"/>
  </g>
  <path fill="#231923" opacity=".38" d="M0 0h1200v760H0z"/>
</svg>
